<svg width="85" height="33" viewBox="0 0 85 33" fill="none" xmlns="http://www.w3.org/2000/svg">
<path d="M2.856 26C2.66933 26 2.51067 25.9347 2.38 25.804C2.24933 25.6733 2.184 25.5147 2.184 25.328V7.1C2.184 6.89467 2.24933 6.72667 2.38 6.596C2.51067 6.46533 2.66933 6.4 2.856 6.4H15.008C15.2133 6.4 15.3813 6.46533 15.512 6.596C15.6427 6.72667 15.708 6.89467 15.708 7.1V9.06C15.708 9.26533 15.6427 9.43333 15.512 9.564C15.3813 9.676 15.2133 9.732 15.008 9.732H6.02V15.052H14.448C14.6533 15.052 14.8213 15.1173 14.952 15.248C15.0827 15.3787 15.148 15.5467 15.148 15.752V17.712C15.148 17.8987 15.0827 18.0573 14.952 18.188C14.8213 18.3187 14.6533 18.384 14.448 18.384H6.02V25.328C6.02 25.5147 5.95467 25.6733 5.824 25.804C5.69333 25.9347 5.52533 26 5.32 26H2.856ZM19.6724 26C19.4857 26 19.3271 25.9347 19.1964 25.804C19.0657 25.6733 19.0004 25.5147 19.0004 25.328V7.072C19.0004 6.88533 19.0657 6.72667 19.1964 6.596C19.3271 6.46533 19.4857 6.4 19.6724 6.4H22.2764C22.4631 6.4 22.6217 6.46533 22.7524 6.596C22.8831 6.72667 22.9484 6.88533 22.9484 7.072V22.668H31.8244C32.0297 22.668 32.1977 22.7333 32.3284 22.864C32.4591 22.9947 32.5244 23.1627 32.5244 23.368V25.328C32.5244 25.5147 32.4591 25.6733 32.3284 25.804C32.1977 25.9347 32.0297 26 31.8244 26H19.6724ZM35.9146 26C35.7279 26 35.5693 25.9347 35.4386 25.804C35.3079 25.6733 35.2426 25.5147 35.2426 25.328V7.072C35.2426 6.88533 35.3079 6.72667 35.4386 6.596C35.5693 6.46533 35.7279 6.4 35.9146 6.4H38.5466C38.7519 6.4 38.9106 6.46533 39.0226 6.596C39.1533 6.72667 39.2186 6.88533 39.2186 7.072V25.328C39.2186 25.5147 39.1533 25.6733 39.0226 25.804C38.9106 25.9347 38.7519 26 38.5466 26H35.9146ZM42.5178 26C42.3498 26 42.2098 25.944 42.0978 25.832C41.9858 25.72 41.9298 25.58 41.9298 25.412C41.9298 25.356 41.9391 25.3 41.9578 25.244C41.9764 25.188 41.9951 25.132 42.0138 25.076L48.2858 16.004L42.4058 7.324C42.3498 7.212 42.3218 7.1 42.3218 6.988C42.3218 6.82 42.3778 6.68 42.4898 6.568C42.6018 6.456 42.7418 6.4 42.9098 6.4H45.7658C45.9898 6.4 46.1671 6.456 46.2978 6.568C46.4284 6.68 46.5404 6.80133 46.6338 6.932L50.7498 12.98L54.8938 6.932C54.9684 6.80133 55.0711 6.68 55.2018 6.568C55.3511 6.456 55.5378 6.4 55.7618 6.4H58.4778C58.6458 6.4 58.7858 6.456 58.8978 6.568C59.0098 6.68 59.0658 6.82 59.0658 6.988C59.0658 7.1 59.0284 7.212 58.9538 7.324L53.1018 16.004L59.3738 25.076C59.4111 25.132 59.4391 25.188 59.4578 25.244C59.4764 25.3 59.4858 25.356 59.4858 25.412C59.4858 25.58 59.4204 25.72 59.2898 25.832C59.1778 25.944 59.0471 26 58.8978 26H55.9298C55.7058 26 55.5284 25.944 55.3978 25.832C55.2671 25.72 55.1644 25.608 55.0898 25.496L50.6098 19.168L46.2138 25.496C46.1391 25.608 46.0364 25.72 45.9058 25.832C45.7751 25.944 45.5884 26 45.3458 26H42.5178Z" fill="white"/>
<path d="M69.9473 26C69.8539 26 69.7746 25.9673 69.7093 25.902C69.6439 25.8367 69.6113 25.7573 69.6113 25.664V17.922H67.0213C66.9279 17.922 66.8486 17.8893 66.7833 17.824C66.7179 17.7587 66.6853 17.6793 66.6853 17.586V16.55C66.6853 16.4473 66.7179 16.3633 66.7833 16.298C66.8486 16.2327 66.9279 16.2 67.0213 16.2H74.1613C74.2639 16.2 74.3479 16.2327 74.4133 16.298C74.4786 16.3633 74.5113 16.4473 74.5113 16.55V17.586C74.5113 17.6793 74.4786 17.7587 74.4133 17.824C74.3479 17.8893 74.2639 17.922 74.1613 17.922H71.5853V25.664C71.5853 25.7573 71.5526 25.8367 71.4873 25.902C71.4219 25.9673 71.3379 26 71.2353 26H69.9473ZM78.7878 26C78.6385 26 78.5218 25.9627 78.4378 25.888C78.3538 25.8133 78.2932 25.72 78.2558 25.608L75.2598 16.62C75.2412 16.5733 75.2318 16.5313 75.2318 16.494C75.2318 16.41 75.2598 16.34 75.3158 16.284C75.3718 16.228 75.4418 16.2 75.5258 16.2H76.7578C76.8885 16.2 76.9865 16.2373 77.0518 16.312C77.1265 16.3773 77.1732 16.4427 77.1918 16.508L79.5578 23.718L81.9238 16.508C81.9425 16.4427 81.9845 16.3773 82.0498 16.312C82.1245 16.2373 82.2272 16.2 82.3578 16.2H83.5898C83.6645 16.2 83.7298 16.228 83.7858 16.284C83.8512 16.34 83.8838 16.41 83.8838 16.494C83.8838 16.5313 83.8745 16.5733 83.8558 16.62L80.8598 25.608C80.8225 25.72 80.7618 25.8133 80.6778 25.888C80.5938 25.9627 80.4772 26 80.3278 26H78.7878Z" fill="#2F80ED"/>
</svg>
